<?xml version="1.0" standalone="no"?>
<!DOCTYPE svg PUBLIC "-//W3C//DTD SVG 20010904//EN"
 "http://www.w3.org/TR/2001/REC-SVG-20010904/DTD/svg10.dtd">
<svg version="1.0" xmlns="http://www.w3.org/2000/svg"
 width="16.000000pt" height="16.000000pt" viewBox="0 0 16.000000 16.000000"
 preserveAspectRatio="xMidYMid meet">
<metadata>
Created by potrace 1.16, written by Peter Selinger 2001-2019
</metadata>
<g transform="translate(0.000000,16.000000) scale(0.007442,-0.007306)"
fill="#000000" stroke="none">
<path d="M0 1095 l0 -1095 1075 0 1075 0 0 1095 0 1095 -1075 0 -1075 0 0
-1095z m1312 509 l37 -6 -29 -44 c-36 -52 -37 -64 -6 -64 61 0 286 -93 286
-119 0 -4 -18 -17 -40 -30 -22 -12 -40 -26 -40 -31 0 -5 17 -18 38 -29 52 -27
176 -132 165 -140 -4 -4 -37 -18 -73 -31 -87 -30 -219 -98 -305 -155 l-70 -46
53 6 c51 6 52 5 52 -20 0 -39 32 -33 128 27 l34 21 -26 -51 c-14 -28 -26 -56
-26 -61 0 -6 23 -13 50 -17 28 -4 50 -10 50 -15 0 -21 -116 -98 -169 -113 -69
-19 -79 -20 -63 -4 20 20 14 23 -33 20 -65 -6 -122 18 -251 103 l-115 76 -44
-17 c-24 -9 -63 -32 -86 -52 -46 -39 -39 -43 -90 45 l-30 53 -32 -16 c-57 -29
-61 -36 -36 -55 l22 -16 -46 -27 c-44 -26 -161 -55 -173 -43 -3 3 6 18 20 34
14 15 26 33 26 39 0 6 -19 17 -42 24 l-43 13 35 9 c102 25 148 66 130 113 -16
41 -12 51 25 71 31 16 35 23 30 44 -21 82 -35 161 -35 206 0 44 4 54 33 81 46
45 136 97 204 118 32 10 63 24 68 32 11 14 108 51 170 63 49 10 197 12 247 4z"/>
<path d="M1011 1453 c-20 -17 -23 -30 -28 -149 -7 -150 -2 -184 27 -184 19 0
20 2 5 30 -8 16 -15 46 -15 66 l0 38 20 -22 c42 -45 110 -16 110 46 0 37 -67
183 -87 189 -6 2 -20 -4 -32 -14z"/>
<path d="M832 1360 c-21 -13 -41 -38 -54 -66 l-20 -46 -22 21 c-25 23 -65 28
-84 9 -19 -19 -14 -81 11 -128 l23 -44 81 0 82 -1 30 50 c40 67 51 98 51 149
0 29 -6 48 -18 59 -24 22 -40 21 -80 -3z"/>
<path d="M1248 1354 c-29 -14 -54 -37 -64 -56 -21 -40 -65 -168 -58 -168 9 0
149 84 155 93 4 5 10 36 13 69 4 33 10 66 13 74 7 19 -4 17 -59 -12z"/>
<path d="M1351 1179 c-50 -45 -91 -83 -91 -86 0 -3 7 1 17 8 12 11 17 11 20 2
3 -7 13 -23 24 -37 47 -60 149 -9 110 54 -7 10 -2 19 20 32 20 12 29 26 29 44
0 28 -16 64 -29 64 -5 0 -49 -36 -100 -81z"/>
</g>
</svg>
