<?xml version="1.0" standalone="no"?>
<!DOCTYPE svg PUBLIC "-//W3C//DTD SVG 20010904//EN"
 "http://www.w3.org/TR/2001/REC-SVG-20010904/DTD/svg10.dtd">
<svg version="1.0" xmlns="http://www.w3.org/2000/svg"
 width="215.000000pt" height="219.000000pt" viewBox="0 0 215.000000 219.000000"
 preserveAspectRatio="xMidYMid meet">
<metadata>
Created by potrace 1.10, written by Peter Selinger 2001-2011
</metadata>
<g transform="translate(0.000000,219.000000) scale(0.100000,-0.100000)"
fill="#000000" stroke="none">
<path d="M1065 1624 c-10 -7 -22 -11 -27 -8 -5 3 -15 0 -23 -6 -8 -7 -15 -9
-15 -5 0 4 -6 2 -14 -4 -8 -6 -18 -11 -22 -9 -15 4 -74 -21 -74 -31 0 -6 -7
-7 -17 -4 -11 4 -14 3 -9 -5 5 -8 -7 -14 -33 -18 -23 -4 -38 -10 -35 -15 3 -5
-2 -6 -10 -3 -9 3 -16 2 -16 -3 0 -5 -17 -15 -37 -22 -21 -8 -52 -25 -70 -38
-20 -15 -37 -22 -45 -17 -8 5 -8 1 2 -11 10 -13 11 -16 2 -11 -13 8 -50 -30
-44 -46 1 -5 -1 -8 -5 -8 -10 0 -8 -99 3 -124 5 -14 4 -17 -5 -12 -8 6 -11 2
-9 -10 2 -11 6 -21 10 -25 4 -3 14 -26 22 -52 l14 -47 -29 -16 c-34 -17 -51
-51 -38 -76 12 -22 12 -51 0 -44 -5 3 -12 -1 -15 -10 -4 -10 -2 -13 7 -8 8 5
9 4 2 -4 -6 -6 -19 -13 -30 -15 -11 -2 -30 -8 -41 -15 -12 -6 -24 -9 -27 -5
-8 7 -57 -24 -57 -36 0 -10 71 -46 84 -43 4 2 -6 -11 -23 -29 -23 -22 -29 -35
-21 -44 5 -6 8 -14 6 -16 -5 -4 42 -2 112 5 24 2 52 12 62 21 10 9 24 14 31 9
7 -4 10 -3 6 3 -4 6 4 15 16 20 14 7 23 21 25 39 4 47 18 49 46 8 45 -69 52
-75 84 -72 17 1 29 4 27 6 -8 8 15 42 28 42 7 0 23 9 36 19 14 10 31 17 38 14
7 -3 13 0 13 6 0 11 58 -24 72 -44 4 -5 8 -6 8 -2 0 4 24 -10 54 -32 78 -58
125 -80 181 -87 50 -6 79 -20 70 -34 -2 -4 17 -3 43 2 26 5 58 11 71 12 13 2
28 11 33 20 5 9 13 14 17 12 10 -7 102 70 94 78 -4 3 -2 6 4 6 32 0 18 53 -14
56 -7 1 -22 2 -34 3 -15 1 -20 7 -17 24 2 13 9 21 18 19 12 -3 12 -1 3 9 -9 9
-9 18 -2 31 6 11 9 22 6 24 -3 3 -19 -21 -37 -52 -19 -34 -28 -60 -22 -66 5
-5 30 -10 55 -11 26 -1 47 -5 47 -8 0 -13 -89 -88 -128 -108 -53 -27 -117 -37
-127 -21 -5 8 -4 11 2 7 6 -4 18 2 28 13 10 11 20 18 24 16 3 -2 6 27 6 65 0
38 -3 69 -7 69 -23 0 -3 19 35 34 23 9 62 32 86 51 35 28 40 35 23 35 -12 0
-26 -8 -31 -17 -6 -10 -11 -13 -11 -8 0 6 -3 6 -8 0 -12 -18 -60 -45 -78 -45
-10 0 -14 3 -11 7 4 3 1 14 -7 22 -13 14 -12 19 10 40 17 16 22 18 18 6 -5
-11 2 -8 21 9 15 14 32 26 37 26 6 0 23 9 39 21 16 11 29 17 29 14 0 -4 15 3
34 14 18 12 47 21 65 21 17 0 31 5 31 10 0 6 7 10 15 10 9 0 25 9 37 19 l21
20 -22 33 c-11 18 -21 30 -21 26 0 -3 -18 12 -40 34 -22 23 -40 38 -40 34 0
-4 -6 -2 -12 4 -7 6 -22 18 -33 26 -14 11 -16 17 -7 20 6 3 10 10 7 15 -4 5 0
7 7 4 7 -2 21 7 31 20 10 14 15 24 10 23 -4 -2 -18 6 -30 17 -38 35 -53 46
-53 39 0 -4 -8 3 -19 14 -10 12 -21 19 -24 15 -4 -3 -14 0 -24 8 -15 12 -16
12 -8 -1 5 -9 0 -8 -13 4 -12 11 -22 16 -22 11 0 -4 -7 -2 -15 5 -8 7 -30 13
-48 14 -48 4 -59 13 -45 36 7 10 16 16 22 13 5 -4 7 1 3 10 -3 9 -1 17 4 19
21 7 -4 38 -30 38 -15 0 -30 3 -34 6 -13 14 -213 11 -232 -2z m247 -20 l38 -7
-35 -48 c-19 -27 -35 -51 -35 -54 0 -3 16 -5 35 -5 42 0 172 -46 243 -87 l53
-31 -38 -23 c-58 -35 -104 -71 -98 -77 3 -3 13 3 24 12 18 17 21 16 58 -3 42
-22 173 -128 173 -140 0 -5 -15 -11 -34 -14 -69 -11 -416 -193 -416 -218 0 -4
24 -2 53 5 l52 12 -3 -105 c-2 -58 -5 -108 -7 -110 -2 -2 -24 -6 -49 -8 -64
-8 -120 15 -252 102 l-115 76 -44 -17 c-24 -9 -63 -32 -86 -52 -46 -39 -39
-43 -90 46 l-31 53 -45 -26 c-25 -14 -47 -25 -49 -25 -2 0 -9 18 -15 40 -7 21
-15 37 -20 35 -10 -7 8 -69 21 -73 6 -2 8 -7 6 -10 -2 -4 7 -8 20 -8 16 -1 24
4 25 15 0 11 3 10 11 -7 9 -18 8 -25 -8 -37 -44 -34 -112 -59 -169 -63 l-59
-5 32 37 c17 20 32 41 32 45 0 5 -17 12 -38 16 -47 8 -78 25 -46 25 42 0 123
33 149 60 26 27 26 29 11 64 l-15 36 40 22 c34 20 39 27 33 48 -21 87 -34 162
-34 207 0 49 2 53 47 93 49 43 164 103 220 115 17 3 34 12 36 20 5 12 133 59
187 68 41 7 192 7 232 1z"/>
<path d="M1008 1501 c-2 -17 -1 -28 4 -25 4 3 8 12 8 20 0 8 5 14 10 14 6 0
10 -6 10 -12 0 -9 3 -8 9 2 12 18 5 30 -18 30 -13 0 -20 -9 -23 -29z"/>
<path d="M1016 1457 c-28 -23 -28 -23 -34 -175 l-5 -151 27 -11 c38 -14 38
-14 16 23 -13 20 -20 49 -19 77 0 40 2 42 11 22 15 -30 55 -39 87 -20 23 12
26 21 25 64 0 38 -9 65 -40 121 l-40 72 -28 -22z m24 -26 c0 -5 6 -16 13 -23
20 -22 57 -107 57 -133 0 -42 -40 -53 -77 -21 -20 17 -23 29 -23 96 0 42 3 80
7 83 9 10 23 8 23 -2z"/>
<path d="M1254 1447 c-10 -18 -25 -45 -32 -61 -21 -49 13 -12 38 41 25 54 22
66 -6 20z"/>
<path d="M1353 1444 c-3 -8 -12 -13 -19 -10 -8 3 -11 0 -8 -8 7 -18 -19 -42
-80 -73 -28 -14 -52 -27 -54 -28 -5 -5 -80 -205 -77 -205 2 0 42 23 89 51 l85
51 7 69 c6 61 12 76 46 119 22 28 35 50 29 50 -7 0 -14 -7 -18 -16z m-73 -119
c4 3 4 -10 0 -28 -9 -38 -28 -86 -29 -73 -1 6 -7 2 -13 -7 -7 -9 -25 -18 -40
-20 -15 -1 -31 -7 -35 -12 -4 -4 -2 -5 5 -1 6 4 12 2 12 -3 0 -6 -4 -11 -8
-11 -18 0 -21 14 -8 39 8 14 22 45 31 68 12 28 26 45 44 51 14 5 28 5 29 0 2
-4 7 -6 12 -3z"/>
<path d="M1255 1310 c-3 -5 -1 -10 4 -10 6 0 11 5 11 10 0 6 -2 10 -4 10 -3 0
-8 -4 -11 -10z"/>
<path d="M826 1359 c-31 -24 -56 -69 -56 -100 0 -20 -2 -19 -35 10 -40 35 -57
38 -79 15 -30 -29 -30 -61 0 -122 l29 -57 84 1 85 0 33 60 c56 100 64 161 27
198 -21 22 -56 20 -88 -5z m86 -31 c12 -36 -16 -129 -48 -162 -14 -14 -24 -29
-21 -33 3 -4 -28 -8 -67 -8 -74 0 -110 14 -100 39 3 7 -2 19 -11 26 -8 7 -15
25 -15 41 0 40 40 50 81 20 24 -18 33 -20 45 -10 8 6 12 14 10 17 -3 2 4 22
15 44 31 61 95 76 111 26z"/>
<path d="M1349 1179 c-102 -92 -126 -123 -111 -142 7 -9 3 -17 -14 -30 -25
-18 -33 -10 -12 11 6 6 9 14 6 18 -4 3 -25 -20 -48 -50 -24 -33 -46 -54 -52
-50 -7 4 -8 3 -4 -4 4 -7 15 -8 27 -4 24 9 169 125 163 131 -2 2 -12 -3 -22
-12 -44 -40 -45 7 -1 49 18 18 28 22 24 12 -9 -22 45 -78 74 -78 42 0 83 75
51 95 -5 3 -10 11 -10 16 0 6 4 8 8 5 16 -10 52 25 52 50 0 30 -16 64 -30 64
-6 0 -51 -36 -101 -81z m104 4 c-2 -6 -16 -14 -29 -17 -22 -6 -25 -11 -19 -36
9 -40 -2 -70 -25 -70 -23 0 -61 46 -53 66 3 8 8 13 10 10 6 -6 63 55 63 67 0
4 5 5 10 2 6 -3 10 -1 10 5 0 6 5 8 10 5 6 -3 10 0 11 7 0 7 4 4 8 -7 5 -11 6
-25 4 -32z"/>
<path d="M1556 1214 c-39 -14 -70 -34 -63 -41 5 -4 117 45 117 52 0 7 -10 5
-54 -11z"/>
<path d="M1140 1090 c-23 -45 -35 -53 -20 -14 12 31 12 34 1 34 -5 0 -17 -31
-25 -69 -19 -84 -19 -81 -3 -81 8 0 18 15 24 33 6 17 20 56 32 85 25 62 20 69
-9 12z"/>
<path d="M995 1063 c4 -25 19 -50 42 -73 l36 -35 -26 33 c-19 24 -27 45 -27
73 0 29 -4 39 -16 39 -13 0 -15 -7 -9 -37z"/>
<path d="M660 1079 c0 -5 5 -7 10 -4 6 3 10 8 10 11 0 2 -4 4 -10 4 -5 0 -10
-5 -10 -11z"/>
<path d="M885 1072 c17 -9 32 -17 35 -17 3 0 16 -7 28 -14 13 -7 26 -11 28 -8
5 4 -100 57 -113 57 -4 -1 6 -8 22 -18z"/>
<path d="M730 910 c0 -5 8 -10 18 -10 12 0 14 -2 4 -8 -7 -5 30 -8 82 -8 52 0
92 4 90 8 -15 23 -194 40 -194 18z m83 -7 c-7 -2 -19 -2 -25 0 -7 3 -2 5 12 5
14 0 19 -2 13 -5z"/>
<path d="M1185 911 c29 -12 93 -22 75 -12 -8 5 -33 11 -55 15 -25 3 -33 3 -20
-3z"/>
</g>
</svg>
